<svg width="199" height="163" viewBox="0 0 199 163" fill="none" xmlns="http://www.w3.org/2000/svg">
<path d="M196.637 163L199 162.214L183.773 118.188V40.3569L192.962 0.786174L190.336 0.262058L181.148 39.0466L131.004 44.2878V35.1158L173.534 31.4469V0H170.909V29.0884L131.266 32.2331V24.8955C136.517 23.5852 140.193 21.2267 140.193 17.8199C140.193 12.5788 130.479 9.69614 121.29 9.69614C112.102 9.69614 102.388 12.5788 102.388 17.8199C102.388 20.9646 105.538 23.0611 110.264 24.6334V34.0675L90.0488 35.6399L40.4301 14.6752L39.3799 17.0338L89.2612 38.5225L109.739 36.9502V46.3842V46.6463L85.5857 49.2669L0.787599 19.3923L0 22.0129L84.0106 51.1013V108.492L8.40106 129.195L9.18865 131.815L85.8483 110.85L181.935 119.76L196.637 163ZM104.751 17.8199C104.751 15.4614 111.051 12.3167 121.028 12.3167C131.004 12.3167 137.305 15.4614 137.305 17.8199C137.305 19.1302 134.942 20.9646 131.266 22.0129V17.5579H128.641V22.799C126.541 23.3232 123.916 23.5852 121.29 23.5852C117.877 23.5852 115.252 23.3232 112.627 22.537V17.5579H110.001V22.0129C106.588 20.7026 104.751 19.1302 104.751 17.8199ZM112.627 25.4196C115.252 25.9437 118.402 26.2058 121.29 26.2058C123.916 26.2058 126.541 25.9437 128.904 25.4196V32.4952L112.627 33.8055V25.4196ZM128.641 35.1158V44.2878L112.364 45.8601V36.164L128.641 35.1158ZM114.464 57.6527H108.164H106.326L111.314 49.2669L116.302 57.6527H114.464ZM112.627 60.2733C111.839 61.0595 110.789 61.0595 110.001 60.2733H112.627ZM181.41 116.878L86.8984 108.23V51.3633L108.426 49.2669L103.175 58.4389C102.913 58.963 102.913 59.2251 103.175 59.7492C103.438 60.2733 103.963 60.2733 104.226 60.2733H107.113C107.639 62.1077 109.476 63.418 111.314 63.418C113.152 63.418 114.989 62.1077 115.515 60.2733H118.402C118.927 60.2733 119.19 60.0113 119.452 59.7492C119.715 59.2251 119.715 58.963 119.452 58.4389L113.939 48.7428L128.641 47.1704V53.7219L121.815 65.5145C121.553 66.0386 121.553 66.3006 121.815 66.8248C122.078 67.3489 122.603 67.3489 122.865 67.3489H125.753C126.278 69.1833 128.116 70.4936 129.954 70.4936C131.792 70.4936 133.629 69.1833 134.154 67.3489H137.042C137.567 67.3489 137.83 67.0868 138.092 66.8248C138.355 66.3006 138.355 66.0386 138.092 65.5145L131.266 53.4598V46.6463L181.148 41.4051V116.878H181.41ZM133.367 64.9903H127.066H125.228L130.216 56.6045L135.204 64.9903H133.367ZM131.266 67.6109C130.479 68.3971 129.429 68.3971 128.641 67.6109H131.266Z" fill="black"/>
</svg>
